<?xml version="1.0" encoding="utf-8"?>
<!-- Generator: Adobe Illustrator 24.1.0, SVG Export Plug-In . SVG Version: 6.00 Build 0)  -->
<svg version="1.1" id="Capa_1" xmlns="http://www.w3.org/2000/svg" xmlns:xlink="http://www.w3.org/1999/xlink" x="0px" y="0px"
	 viewBox="0 0 297 297" style="enable-background:new 0 0 297 297;" xml:space="preserve">
<style type="text/css">
	.st0{fill:#095D42;}
</style>
<g>
	<path class="st0" d="M268.3,64.7h-64.8L190,37.2c-1.7-3.4-5.1-5.5-8.9-5.5h-48.9c-3.8,0-7.2,2.1-8.9,5.5l-13.6,27.4H28.7
		C12.9,64.7,0,77.5,0,93.3v143.3c0,15.8,12.9,28.7,28.7,28.7h239.7c15.8,0,28.7-12.9,28.7-28.7V93.3C297,77.5,284.1,64.7,268.3,64.7
		z M138.3,51.5H175l6.5,13.2h-49.7L138.3,51.5z M268.3,84.4c4.9,0,8.9,4,8.9,8.9v20.3h-36.4c-15-13.2-34.7-21.3-56.3-21.3
		c-21.5,0-41.2,8-56.3,21.3H19.8V93.3c0-4.9,4-8.9,8.9-8.9L268.3,84.4L268.3,84.4z M184.6,244.1c-36.2,0-65.7-29.6-65.7-66
		s29.5-66,65.7-66c36.2,0,65.7,29.6,65.7,66S220.8,244.1,184.6,244.1z M19.8,236.6V133.4h91.9c-8,13-12.6,28.3-12.6,44.7
		c0,27.3,12.8,51.7,32.7,67.4H28.7C23.8,245.5,19.8,241.5,19.8,236.6z M268.3,245.5h-31c19.9-15.7,32.7-40.1,32.7-67.4
		c0-16.4-4.6-31.7-12.6-44.7h19.7v103.3C277.2,241.5,273.2,245.5,268.3,245.5z"/>
	<path class="st0" d="M184.6,128c-27.5,0-50,22.5-50,50.1s22.4,50.1,50,50.1c27.5,0,50-22.5,50-50.1S212.1,128,184.6,128z
		 M184.6,208.4c-16.6,0-30.2-13.6-30.2-30.3s13.5-30.3,30.2-30.3c16.6,0,30.2,13.6,30.2,30.3S201.2,208.4,184.6,208.4z"/>
</g>
</svg>
