<?xml version="1.0" encoding="utf-8"?>
<svg version="1.1" id="Capa_1" xmlns="http://www.w3.org/2000/svg" xmlns:xlink="http://www.w3.org/1999/xlink" x="0px" y="0px"
	 viewBox="0 0 239.4 239.4" style="enable-background:new 0 0 239.4 239.4;" xml:space="preserve">
<style type="text/css">
	.st0{fill:#095D42;}
</style>
<g>
	<path class="st0" d="M218.9,9.3H20.6C9.2,9.3,0,18.5,0,29.8v18.8v113.1v18.8C0,191.7,9.2,201,20.6,201h65.1v14.2H60.4
		c-4.1,0-7.5,3.4-7.5,7.5c0,4.1,3.4,7.5,7.5,7.5h32.8h53.1H179c4.1,0,7.5-3.4,7.5-7.5c0-4.1-3.4-7.5-7.5-7.5h-25.3V201h65.1
		c11.3,0,20.5-9.2,20.5-20.6v-18.8V48.6V29.8C239.4,18.5,230.2,9.3,218.9,9.3z M20.6,24.3h198.3c3.1,0,5.5,2.5,5.5,5.5v11.3H15V29.8
		C15,26.7,17.5,24.3,20.6,24.3z M224.4,154.1H15V56.1h209.4V154.1z M138.8,215.1h-38.1V201h38.1V215.1z M218.9,186h-72.6H93.1H20.6
		c-3.1,0-5.6-2.5-5.6-5.6v-11.3h209.4v11.3C224.4,183.5,221.9,186,218.9,186z"/>
	<path class="st0" d="M98.5,133.8c1.9,0,3.8-0.7,5.3-2.2l42.3-42.3c2.9-2.9,2.9-7.7,0-10.6c-2.9-2.9-7.7-2.9-10.6,0L93.2,121
		c-2.9,2.9-2.9,7.7,0,10.6C94.7,133,96.6,133.8,98.5,133.8z"/>
	<path class="st0" d="M72.3,131.6c1.5,1.5,3.4,2.2,5.3,2.2c1.9,0,3.8-0.7,5.3-2.2c2.9-2.9,2.9-7.7,0-10.6l-15.5-15.5L83,89.8
		c2.9-2.9,2.9-7.7,0-10.6c-2.9-2.9-7.7-2.9-10.6,0l-20.9,20.9c-2.9,2.9-2.9,7.7,0,10.6L72.3,131.6z"/>
	<path class="st0" d="M156.5,131.6c1.5,1.5,3.4,2.2,5.3,2.2c1.9,0,3.8-0.7,5.3-2.2l20.9-20.9c1.4-1.4,2.2-3.3,2.2-5.3
		c0-2-0.8-3.9-2.2-5.3l-20.8-20.8c-2.9-2.9-7.7-2.9-10.6,0c-2.9,2.9-2.9,7.7,0,10.6l15.5,15.5L156.5,121
		C153.5,123.9,153.5,128.6,156.5,131.6z"/>
</g>
</svg>
