<svg width="297" height="297" viewBox="0 0 297 297" fill="none" xmlns="http://www.w3.org/2000/svg">
<g id="camera-svgrepo-com 1" clip-path="url(#clip0_0_1)">
<g id="Ogrodje">
<path id="Vector" d="M268.3 96H203.5L190 68.5C188.3 65.1 184.9 63 181.1 63H132.2C128.4 63 125 65.1 123.3 68.5L109.7 95.9H28.7C12.9 96 0 108.8 0 124.6V267.9C0 283.7 12.9 296.6 28.7 296.6H268.4C284.2 296.6 297.1 283.7 297.1 267.9V124.6C297 108.8 284.1 96 268.3 96ZM138.3 82.8H175L181.5 96H131.8L138.3 82.8ZM268.3 115.7C273.2 115.7 277.2 119.7 277.2 124.6V144.9H240.8C225.8 131.7 206.1 123.6 184.5 123.6C163 123.6 143.3 131.6 128.2 144.9H19.8V124.6C19.8 119.7 23.8 115.7 28.7 115.7H268.3ZM184.6 275.4C148.4 275.4 118.9 245.8 118.9 209.4C118.9 173 148.4 143.4 184.6 143.4C220.8 143.4 250.3 173 250.3 209.4C250.3 245.8 220.8 275.4 184.6 275.4ZM19.8 267.9V164.7H111.7C103.7 177.7 99.1 193 99.1 209.4C99.1 236.7 111.9 261.1 131.8 276.8H28.7C23.8 276.8 19.8 272.8 19.8 267.9ZM268.3 276.8H237.3C257.2 261.1 270 236.7 270 209.4C270 193 265.4 177.7 257.4 164.7H277.1V268C277.2 272.8 273.2 276.8 268.3 276.8Z" fill="#095D42"/>
<path id="Vector_2" d="M184.6 159.3C157.1 159.3 134.6 181.8 134.6 209.4C134.6 237 157 259.5 184.6 259.5C212.1 259.5 234.6 237 234.6 209.4C234.6 181.8 212.1 159.3 184.6 159.3ZM184.6 239.7C168 239.7 154.4 226.1 154.4 209.4C154.4 192.7 167.9 179.1 184.6 179.1C201.2 179.1 214.8 192.7 214.8 209.4C214.8 226.1 201.2 239.7 184.6 239.7Z" fill="#095D42"/>
</g>
<path id="Fles" d="M181.231 9L197.731 38.5L251.987 31.5906L220.497 63.6595L269.462 82.3513L216.523 90.5L220.497 123.058L181.231 103.5L141.964 123.058V93L93 82.3513L128 63.6595L110.475 31.5906L163.5 42.5L181.231 9Z" fill="#FFFF00"/>
</g>
<defs>
<clipPath id="clip0_0_1">
<rect width="297" height="297" fill="white"/>
</clipPath>
</defs>
</svg>
