<svg width="240" height="240" viewBox="0 0 240 240" fill="none" xmlns="http://www.w3.org/2000/svg">
<path id="Vector" d="M218.9 9.3H20.6C9.2 9.3 0 18.5 0 29.8V48.6V161.7V180.5C0 191.7 9.2 201 20.6 201H85.7V215.2H60.4C56.3 215.2 52.9 218.6 52.9 222.7C52.9 226.8 56.3 230.2 60.4 230.2H93.2H146.3H179C183.1 230.2 186.5 226.8 186.5 222.7C186.5 218.6 183.1 215.2 179 215.2H153.7V201H218.8C230.1 201 239.3 191.8 239.3 180.4V161.6V48.6V29.8C239.4 18.5 230.2 9.3 218.9 9.3ZM20.6 24.3H218.9C222 24.3 224.4 26.8 224.4 29.8V41.1H15V29.8C15 26.7 17.5 24.3 20.6 24.3ZM224.4 154.1H15V56.1H224.4V154.1ZM138.8 215.1H100.7V201H138.8V215.1ZM218.9 186H146.3H93.1H20.6C17.5 186 15 183.5 15 180.4V169.1H224.4V180.4C224.4 183.5 221.9 186 218.9 186Z" fill="#095D42"/>
<g id="coding-svgrepo-com 1">
<g id="Text">
<path id="Sredina" d="M98.5 133.8C100.4 133.8 102.3 133.1 103.8 131.6L146.1 89.3C149 86.4 149 81.6 146.1 78.7C143.2 75.8 138.4 75.8 135.5 78.7L93.2 121C90.3 123.9 90.3 128.7 93.2 131.6C94.7 133 96.6 133.8 98.5 133.8Z" fill="#095D42"/>
<path id="Leva" d="M72.3 131.6C73.8 133.1 75.7 133.8 77.6 133.8C79.5 133.8 81.4 133.1 82.9 131.6C85.8 128.7 85.8 123.9 82.9 121L67.4 105.5L83 89.8C85.9 86.9 85.9 82.1 83 79.2C80.1 76.3 75.3 76.3 72.4 79.2L51.5 100.1C48.6 103 48.6 107.8 51.5 110.7L72.3 131.6Z" fill="#095D42"/>
<path id="Desna" d="M156.5 131.6C158 133.1 159.9 133.8 161.8 133.8C163.7 133.8 165.6 133.1 167.1 131.6L188 110.7C189.4 109.3 190.2 107.4 190.2 105.4C190.2 103.4 189.4 101.5 188 100.1L167.2 79.3C164.3 76.4 159.5 76.4 156.6 79.3C153.7 82.2 153.7 87 156.6 89.9L172.1 105.4L156.5 121C153.5 123.9 153.5 128.6 156.5 131.6Z" fill="#095D42"/>
</g>
</g>
</svg>
